<svg width="129" height="101" viewBox="0 0 129 101" fill="none" xmlns="http://www.w3.org/2000/svg">
<path d="M61.8315 67.3862V71.1871C61.8315 72.7329 60.8823 74.0351 59.4267 74.5222L55.9038 75.6762C54.8913 76.0044 54.153 76.6926 53.7522 77.6878C53.71 77.8043 53.6572 77.9102 53.615 78.0266C53.1931 79.0113 53.2353 80.0277 53.7205 80.9806L55.3976 84.2945C56.0937 85.6709 55.8406 87.2696 54.7542 88.3601L51.2524 91.8752C50.166 92.9657 48.5734 93.2198 47.2022 92.521L43.9008 90.8376C42.9516 90.3505 41.939 90.3188 40.9581 90.7423C40.8421 90.7846 40.7366 90.8376 40.6206 90.8799C39.6397 91.2823 38.9435 92.0234 38.6165 93.0398L37.4669 96.576C36.9922 98.0477 35.6843 98.99 34.1444 98.99H29.1977C27.6577 98.99 26.3604 98.0371 25.8752 96.576L24.7255 93.0398C24.3986 92.0234 23.713 91.2823 22.7215 90.8799C22.6055 90.8376 22.4895 90.7846 22.384 90.7423C21.4031 90.3188 20.3905 90.3611 19.4412 90.8482L16.1399 92.5316C14.7687 93.2304 13.176 92.9763 12.0897 91.8857L8.5879 88.3707C7.50151 87.2802 7.24837 85.6814 7.9445 84.3051L9.62155 80.9912C10.1067 80.0383 10.1384 79.0219 9.72703 78.0372C9.67429 77.9208 9.6321 77.8043 9.57936 77.6984C9.17856 76.7138 8.44024 76.015 7.42768 75.6868L3.90482 74.5328C2.43872 74.0563 1.5 72.7435 1.5 71.1977V66.2321C1.5 64.6863 2.44927 63.3841 3.90482 62.897L7.42768 61.743C8.44024 61.4148 9.17856 60.716 9.57936 59.7314C9.62155 59.6149 9.67429 59.509 9.71648 59.3926C10.1384 58.4079 10.0962 57.3915 9.611 56.4386L7.93396 53.1247C7.23782 51.7484 7.49096 50.1496 8.57735 49.0591L12.0791 45.5441C13.1655 44.4535 14.7582 44.1994 16.1293 44.8982L19.4307 46.5816C20.38 47.0687 21.3925 47.1004 22.3734 46.6875C22.4895 46.6452 22.5949 46.5922 22.711 46.5499C23.6919 46.1476 24.388 45.4064 24.715 44.39L25.8647 40.8538C26.3393 39.3821 27.6472 38.4398 29.1766 38.4398H30.4212" stroke="white" stroke-width="3" stroke-miterlimit="10"/>
<path d="M46.5061 62.082C46.7382 62.6854 46.8648 63.363 46.8648 64.0618C46.8648 65.3747 46.4112 66.5711 45.694 67.4498C45.3459 67.8733 44.924 68.2333 44.4599 68.4874C44.5549 68.498 44.6392 68.5192 44.7342 68.5509L45.4408 68.805C45.81 68.9321 46.1159 69.0168 46.4007 69.1015C48.1305 69.5779 49.5016 69.9591 49.5016 72.2989V77.7621C49.5016 78.4821 48.9215 79.0644 48.2043 79.0644H40.8211V80.7054C40.8211 81.4254 40.2409 82.0077 39.5237 82.0077H23.808C23.0908 82.0077 22.5106 81.4254 22.5106 80.7054V79.0644H15.1274C14.4102 79.0644 13.8301 78.4821 13.8301 77.7621V72.2989C13.8301 69.9591 15.138 69.5885 16.8361 69.1121C17.1631 69.0168 17.5111 68.9215 17.7959 68.8156L18.5553 68.5298C18.6397 68.498 18.7347 68.4768 18.819 68.4662C18.376 68.2121 17.9752 67.8628 17.6377 67.4498C16.9099 66.5711 16.4669 65.3747 16.4669 64.0618C16.4669 62.749 16.9205 61.5526 17.6377 60.6738C18.4182 59.7315 19.5152 59.1386 20.7492 59.1386C21.9833 59.1386 23.0802 59.7209 23.8607 60.6738C24.5885 61.5526 25.0315 62.749 25.0315 64.0618C25.0315 65.3747 24.578 66.5711 23.8607 67.4498C23.5127 67.8733 23.0908 68.2333 22.6267 68.4874C22.7216 68.498 22.8165 68.5192 22.9009 68.5509L23.7025 68.8368C23.9873 68.9321 24.2826 69.0168 24.5674 69.0909C24.8838 69.1756 25.1792 69.2603 25.4639 69.3556C25.7487 69.2709 26.044 69.1862 26.3499 69.1015C26.7824 68.985 27.2465 68.8474 27.7316 68.6674L27.7949 68.6462L28.7969 68.2757C29.3138 68.0851 29.8728 68.2439 30.2103 68.6356L31.4022 69.832C31.5182 69.9485 31.6131 70.0861 31.6764 70.2344C31.7397 70.0861 31.8346 69.9485 31.9401 69.8426L33.153 68.6145C33.5117 68.2439 34.0496 68.1486 34.5031 68.3074L35.5895 68.6992C36.0114 68.8474 36.4544 68.9744 36.8763 69.0803C37.2138 69.1756 37.5408 69.2603 37.8467 69.3556C38.1209 69.2603 38.3951 69.1756 38.6905 69.1015C39.0174 69.0062 39.3655 68.9109 39.6503 68.805L40.4097 68.5192C40.4941 68.4874 40.589 68.4662 40.6734 68.4556C40.2304 68.2015 39.8296 67.8522 39.4921 67.4392C38.7643 66.5605 38.3213 65.3641 38.3213 64.0512C38.3213 62.7384 38.7748 61.542 39.4921 60.6632C40.2515 59.7421 41.3273 59.1598 42.5192 59.128C43.7849 60.1974 45.1139 61.182 46.5167 62.0714L46.5061 62.082ZM38.2369 77.7727V73.0824V73.0612V73.0401V73.0295V73.0189C38.2053 72.1401 37.3087 71.8966 36.1907 71.5896C35.7266 71.4625 35.2414 71.3249 34.7246 71.1449L34.3976 71.0284L34.1445 71.2825L34.1972 76.2481C34.2183 76.6081 34.0812 76.9786 33.807 77.2539L32.6573 78.3656C32.1827 78.8738 31.3705 78.9161 30.8537 78.4397L29.5775 77.2857C29.3138 77.0422 29.145 76.6928 29.1556 76.3116L29.2083 71.2825L28.9235 70.9967L28.6387 71.1025C28.1114 71.3037 27.5629 71.4519 27.0566 71.6002C25.9808 71.9072 25.1475 72.1401 25.1159 73.0083V73.0189V73.0295V73.0506V73.0718V77.7621V79.4032H38.2475V77.7621L38.2369 77.7727ZM40.4941 71.2613C40.6945 71.6849 40.8105 72.2142 40.8211 72.8707V72.9024V72.9342V72.9659V72.9977V73.0295V73.0612V76.4598H46.9069V72.2989C46.9069 71.9284 46.3796 71.7801 45.7151 71.6002C45.3565 71.5049 44.9662 71.3884 44.6287 71.2719L43.4474 72.4577C42.9305 72.9554 42.1184 72.9342 41.6227 72.426L40.4941 71.2508H40.4835L40.4941 71.2613ZM22.5317 72.8495C22.5528 72.2142 22.6583 71.706 22.8376 71.2825L22.8165 71.2719L21.6352 72.4683C21.1184 72.9659 20.3062 72.9448 19.8105 72.4366L18.6819 71.2613C18.26 71.4202 17.9014 71.5155 17.5639 71.6107C16.931 71.7907 16.4459 71.9284 16.4459 72.2989V76.4598H22.5317V73.0612V73.0295V72.9977V72.9659V72.9342V72.9024V72.8707V72.8389V72.8495ZM31.6764 55.3906C33.2374 55.3906 34.6297 56.1423 35.6317 57.3493C36.5704 58.4928 37.1505 60.0491 37.1505 61.7537C37.1505 63.4583 36.5704 65.0253 35.6317 66.1582C34.6402 67.3651 33.2374 68.1168 31.6764 68.1168C30.1154 68.1168 28.7231 67.3651 27.7211 66.1582C26.7824 65.0147 26.2023 63.4583 26.2023 61.7537C26.2023 60.0491 26.7824 58.4822 27.7211 57.3493C28.7126 56.1423 30.1154 55.3906 31.6764 55.3906ZM33.6382 59.001C33.1214 58.3763 32.4253 57.9846 31.6764 57.9846C30.9275 57.9846 30.2314 58.3763 29.7146 59.001C29.145 59.6892 28.7864 60.6738 28.7864 61.7537C28.7864 62.8443 29.145 63.8183 29.7146 64.5065C30.2314 65.1312 30.9275 65.5229 31.6764 65.5229C32.4253 65.5229 33.1214 65.1312 33.6382 64.5065C34.2078 63.8183 34.5664 62.8443 34.5664 61.7537C34.5664 60.6632 34.2078 59.6892 33.6382 59.001ZM20.0109 68.9109L20.7598 69.6838L21.5297 68.9109C21.2871 68.9639 21.034 68.985 20.7703 68.985C20.5172 68.985 20.264 68.9639 20.0109 68.9109ZM21.8883 62.3255C21.593 61.9655 21.1922 61.7326 20.7703 61.7326C20.3484 61.7326 19.9476 61.9549 19.6523 62.3255C19.2937 62.7596 19.0722 63.3736 19.0722 64.0618C19.0722 64.75 19.2937 65.3641 19.6523 65.7982C19.9476 66.1582 20.3484 66.3911 20.7703 66.3911C21.1922 66.3911 21.593 66.1687 21.8883 65.7982C22.247 65.3641 22.4685 64.75 22.4685 64.0618C22.4685 63.3736 22.247 62.7596 21.8883 62.3255ZM43.3524 68.9109C43.1099 68.9639 42.8567 68.985 42.593 68.985C42.3399 68.985 42.0867 68.9639 41.8336 68.9109L42.5825 69.6838L43.3524 68.9109ZM43.7111 62.3255C43.4157 61.9655 43.0149 61.7326 42.593 61.7326C42.1711 61.7326 41.7703 61.9549 41.475 62.3255C41.1164 62.7596 40.8949 63.3736 40.8949 64.0618C40.8949 64.75 41.1164 65.3641 41.475 65.7982C41.7703 66.1582 42.1711 66.3911 42.593 66.3911C43.0149 66.3911 43.4157 66.1687 43.7111 65.7982C44.0697 65.3641 44.2912 64.75 44.2912 64.0618C44.2912 63.3736 44.0697 62.7596 43.7111 62.3255Z" fill="white"/>
<path d="M97.345 64.697H97.3345H97.3239H97.3134C96.9969 64.697 96.6911 64.6864 96.3852 64.6652V67.3121H98.3259V64.6652C98.02 64.6864 97.7142 64.697 97.3977 64.697H97.3872H97.3766H97.3661H97.345ZM93.7905 67.3121V64.2311C91.4701 63.5959 89.3922 62.3677 87.7363 60.7055C87.5675 60.5361 87.3987 60.3561 87.23 60.1655C87.9156 59.6361 88.5801 59.0856 89.2235 58.5033C89.3395 58.6197 89.445 58.7468 89.561 58.8632C89.8247 59.1279 90.1094 59.382 90.4048 59.6255C90.1516 59.1385 89.909 58.6091 89.6981 58.0692C90.4048 57.4127 91.0798 56.7351 91.7232 56.0258C92.0607 57.1798 92.5143 58.2174 93.0627 59.0962C94.2019 60.949 95.7207 62.103 97.345 62.103C98.9693 62.103 100.478 60.949 101.617 59.0962C102.809 57.1481 103.579 54.4694 103.642 51.4837H95.2672C95.8262 50.6473 96.343 49.7791 96.8282 48.8898H106.173H109.622C110.339 48.8898 110.92 49.4721 110.92 50.192L110.951 51.0602C110.951 54.8294 109.422 58.2386 106.964 60.7055C105.308 62.3677 103.23 63.6065 100.91 64.2311V67.3121H101.849C102.482 67.3121 103.051 67.5662 103.473 67.9897C103.884 68.4132 104.148 68.9849 104.148 69.6202V71.78C104.148 72.4153 103.884 72.987 103.473 73.3999C103.051 73.8234 102.482 74.0775 101.849 74.0775H92.8623C92.2295 74.0775 91.6599 73.8129 91.2486 73.3999C90.8267 72.987 90.5735 72.4047 90.5735 71.7695V69.6096C90.5735 68.9743 90.8267 68.4026 91.2486 67.9791C91.6599 67.5662 92.24 67.3015 92.8729 67.3015H93.8116L93.7905 67.3121ZM101.553 69.906H93.1471V71.473H101.553V69.906ZM106.237 51.4837C106.173 54.5647 105.456 57.3916 104.285 59.6255C104.581 59.382 104.865 59.1279 105.129 58.8632C107.028 56.9575 108.241 54.3635 108.346 51.4837H106.226H106.237Z" fill="white"/>
<path d="M101.068 29.2181C102.038 29.5781 102.798 30.3616 103.135 31.4098L104.285 34.946C104.612 35.9624 105.298 36.7035 106.289 37.1059C106.405 37.1482 106.51 37.2011 106.626 37.2435C107.607 37.667 108.62 37.6246 109.569 37.1376L112.871 35.4542C114.242 34.7554 115.834 35.0095 116.921 36.1L120.423 39.6151C121.509 40.7056 121.762 42.3043 121.066 43.6807L119.389 46.9946C118.904 47.9475 118.872 48.9639 119.283 49.9485C119.326 50.065 119.378 50.1709 119.421 50.2874C119.821 51.272 120.56 51.9708 121.572 52.299L125.095 53.453C126.561 53.9295 127.5 55.2423 127.5 56.7881V61.7537C127.5 63.2994 126.551 64.6017 125.095 65.0887L121.572 66.2428C120.56 66.571 119.821 67.2592 119.421 68.2544C119.378 68.3709 119.326 68.4768 119.283 68.5932C118.862 69.5779 118.904 70.5943 119.389 71.5471L121.066 74.861C121.762 76.2374 121.509 77.8361 120.423 78.9267L116.921 82.4417C115.834 83.5322 114.242 83.7863 112.871 83.0876L109.569 81.4041C108.62 80.9171 107.607 80.8853 106.626 81.3088C106.51 81.3512 106.405 81.4041 106.289 81.4465C105.308 81.8488 104.612 82.5899 104.285 83.6064L103.135 87.1426C102.661 88.6143 101.353 89.5565 99.8128 89.5565H94.8661C93.3261 89.5565 92.0288 88.6037 91.5436 87.1426L90.3939 83.6064C90.067 82.5899 89.3814 81.8488 88.3899 81.4465C88.2739 81.4041 88.1579 81.3512 88.0524 81.3088C87.0715 80.8853 86.0589 80.9277 85.1097 81.4147L81.8083 83.0981C80.4371 83.7969 78.8445 83.5428 77.7581 82.4523L74.2563 78.9372C73.1699 77.8467 72.9168 76.248 73.6129 74.8716L75.29 71.5577C75.7751 70.6048 75.8068 69.5884 75.3954 68.6038C75.3427 68.4873 75.3005 68.3709 75.2478 68.265C74.9524 67.545 74.4884 66.9839 73.8661 66.6028" stroke="white" stroke-width="3" stroke-miterlimit="10"/>
<path d="M56.5472 53.9401C56.4312 53.8978 56.3151 53.8448 56.2097 53.8025C55.2288 53.379 54.2162 53.4213 53.2669 53.9083L49.9656 55.5918C48.5944 56.2905 47.0017 56.0364 45.9153 54.9459L42.4136 51.4309C41.3272 50.3403 41.0741 48.7416 41.7702 47.3652L43.4472 44.0513C43.9324 43.0985 43.9641 42.0821 43.5527 41.0974C43.5 40.981 43.4578 40.8645 43.405 40.7586C43.0042 39.774 42.2659 39.0752 41.2534 38.747L37.7305 37.5929C36.2644 37.1165 35.3257 35.8036 35.3257 34.2579V29.2923C35.3257 27.7465 36.275 26.4443 37.7305 25.9572L41.2534 24.8032C42.2659 24.475 43.0042 23.7762 43.405 22.7916C43.4472 22.6751 43.5 22.5692 43.5422 22.4528C43.9641 21.4681 43.9219 20.4517 43.4367 19.4988L41.7596 16.1849C41.0635 14.8085 41.3166 13.2098 42.403 12.1193L45.9048 8.60424C46.9912 7.51373 48.5839 7.25962 49.955 7.9584L53.2564 9.64182C54.2057 10.1288 55.2182 10.1606 56.1991 9.7477C56.3151 9.70535 56.4206 9.65241 56.5366 9.61006C57.5176 9.20773 58.2137 8.4666 58.5407 7.4502L59.6903 3.91396C60.165 2.44229 61.4729 1.5 63.0022 1.5H67.949C69.4889 1.5 70.7863 2.45288 71.2715 3.91396L72.4211 7.4502C72.7481 8.4666 73.4337 9.20773 74.4251 9.61006C74.5412 9.65241 74.6466 9.70535 74.7627 9.7477C75.7436 10.1712 76.7561 10.1288 77.7054 9.64182L81.0068 7.9584C82.3779 7.25962 83.9706 7.51373 85.057 8.60424L88.5588 12.1193C89.6451 13.2098 89.8983 14.8085 89.2022 16.1849L87.5251 19.4988C87.0399 20.4517 87.0083 21.4681 87.4196 22.4528C87.4618 22.5692 87.5146 22.6751 87.5567 22.7916C87.9576 23.7762 88.6959 24.475 89.7084 24.8032L93.2313 25.9572C94.6974 26.4337 95.6361 27.7465 95.6361 29.2923V34.2579C95.6361 35.8036 94.6868 37.1059 93.2313 37.5929L89.7084 38.747C88.6959 39.0752 87.9576 39.7634 87.5567 40.7586C87.5146 40.8751 87.4618 40.981 87.4196 41.0974C86.9977 42.0821 87.0399 43.0985 87.5251 44.0513L89.2022 47.3652C89.8983 48.7416 89.6451 50.3403 88.5588 51.4309L85.057 54.9459C83.9706 56.0364 82.3779 56.2905 81.0068 55.5918L77.7054 53.9083C76.7561 53.4213 75.7436 53.3896 74.7627 53.8131C74.6466 53.8554 74.5412 53.9083 74.4251 53.9507C73.4442 54.353 72.7481 55.0942 72.4211 56.1106L71.2715 59.6468C70.7968 61.1185 69.4889 62.0608 67.949 62.0608H63.0022C61.4623 62.0608 60.165 61.1079 59.6798 59.6468L58.5301 56.1106C58.2031 55.0942 57.5176 54.353 56.5261 53.9507L56.5472 53.9401Z" stroke="white" stroke-width="3" stroke-miterlimit="10"/>
<path d="M63.5932 34.0566H67.3797C67.8227 34.0566 68.2446 34.1942 68.5716 34.406C69.0462 34.7236 69.3521 35.2212 69.3521 35.8035V46.5075C69.3521 47.0899 69.0568 47.5875 68.5716 47.9051C68.2551 48.1169 67.8332 48.2545 67.3903 48.2545H63.6037C63.1713 48.2545 62.7494 48.1169 62.4224 47.9051C61.9372 47.5875 61.6419 47.1004 61.6419 46.5075V35.8035C61.6419 35.2106 61.9478 34.7236 62.4224 34.406C62.7494 34.1942 63.1713 34.0566 63.6143 34.0566H63.5932ZM54.4274 32.5743C53.4043 33.9507 55.4083 35.5071 56.4736 34.1625L60.8403 28.5087L64.7745 31.3144H64.7956C66.8523 32.659 68.5927 27.8417 69.0357 27.1429L73.7398 30.1498L74.6469 15.8672L62.1482 22.7491L66.8523 25.756L65.1753 28.4134C60.7559 25.2583 62.106 24.9725 59.5746 25.9359L54.4485 32.5743H54.4274ZM55.1763 36.1741H58.9628C59.3953 36.1741 59.8172 36.3117 60.1441 36.5235C60.6293 36.8411 60.9247 37.3281 60.9247 37.921V46.5075C60.9247 47.1004 60.6188 47.5875 60.1336 47.9051C59.8066 48.1169 59.3847 48.2545 58.9523 48.2545H55.1657C54.7227 48.2545 54.3008 48.1169 53.9739 47.9051C53.4992 47.5875 53.1934 47.1004 53.1934 46.5075V37.921C53.1934 37.3387 53.4992 36.8411 53.9739 36.5235H53.9844C54.3008 36.3117 54.7227 36.1847 55.1657 36.1847L55.1763 36.1741ZM58.3511 38.768H55.7986V45.65H58.3511V38.768ZM72.01 31.9391H75.7966C76.2396 31.9391 76.6509 32.0767 76.9779 32.2779C77.4631 32.6061 77.769 33.0931 77.769 33.6754V46.497C77.769 47.0793 77.4631 47.5769 76.9884 47.8945C76.6615 48.1063 76.2396 48.2439 75.8071 48.2439H72.0206C71.5881 48.2439 71.1663 48.1063 70.8393 47.9051H70.8287C70.3541 47.5875 70.0482 47.1004 70.0482 46.5075V33.686C70.0482 33.0931 70.3541 32.6061 70.8287 32.2885H70.8393C71.1557 32.0767 71.5776 31.9497 72.0206 31.9497L72.01 31.9391ZM75.1848 34.533H72.6323V45.65H75.1848V34.533ZM66.768 36.6505H64.2155V45.65H66.768V36.6505Z" fill="white"/>
</svg>
