<svg width="106" height="102" viewBox="0 0 106 102" fill="none" xmlns="http://www.w3.org/2000/svg">
<path d="M44.6343 10.6099V22.4723" stroke="white" stroke-width="3" stroke-miterlimit="22.9256"/>
<path d="M62.0466 10.6099V22.4723" stroke="white" stroke-width="3" stroke-miterlimit="22.9256"/>
<path d="M62.0466 11.7836C59.2256 11.7836 56.9327 9.47818 56.9327 6.64181C56.9327 3.80543 59.2256 1.5 62.0466 1.5C64.8676 1.5 67.1605 3.80543 67.1605 6.64181C67.1605 9.47818 64.8676 11.7836 62.0466 11.7836Z" stroke="white" stroke-width="3" stroke-miterlimit="10"/>
<path d="M44.6346 11.7836C41.8137 11.7836 39.5208 9.47818 39.5208 6.64181C39.5208 3.80543 41.8137 1.5 44.6346 1.5C47.4556 1.5 49.7485 3.80543 49.7485 6.64181C49.7485 9.47818 47.4556 11.7836 44.6346 11.7836Z" stroke="white" stroke-width="3" stroke-miterlimit="10"/>
<path d="M44.6343 91.1741V79.3116" stroke="white" stroke-width="3" stroke-miterlimit="22.9256"/>
<path d="M62.0466 91.1741V79.3116" stroke="white" stroke-width="3" stroke-miterlimit="22.9256"/>
<path d="M62.0466 90.0006C59.2256 90.0006 56.9327 92.306 56.9327 95.1424C56.9327 97.9788 59.2256 100.284 62.0466 100.284C64.8676 100.284 67.1605 97.9788 67.1605 95.1424C67.1605 92.306 64.8676 90.0006 62.0466 90.0006Z" stroke="white" stroke-width="3" stroke-miterlimit="10"/>
<path d="M44.6346 90.0006C41.8137 90.0006 39.5208 92.306 39.5208 95.1424C39.5208 97.9788 41.8137 100.284 44.6346 100.284C47.4556 100.284 49.7485 97.9788 49.7485 95.1424C49.7485 92.306 47.4556 90.0006 44.6346 90.0006Z" stroke="white" stroke-width="3" stroke-miterlimit="10"/>
<path d="M95.4397 50.8921H83.6416" stroke="white" stroke-width="3" stroke-miterlimit="22.9256"/>
<path d="M94.2722 50.8922C94.2722 48.0558 96.5651 45.7504 99.3861 45.7504C102.207 45.7504 104.5 48.0558 104.5 50.8922C104.5 53.7285 102.207 56.034 99.3861 56.034C96.5651 56.034 94.2722 53.7285 94.2722 50.8922Z" stroke="white" stroke-width="3" stroke-miterlimit="10"/>
<path d="M10.5603 50.8921H22.3584" stroke="white" stroke-width="3" stroke-miterlimit="22.9256"/>
<path d="M11.7278 50.8922C11.7278 48.0558 9.43486 45.7504 6.61388 45.7504C3.79291 45.7504 1.5 48.0558 1.5 50.8922C1.5 53.7285 3.79291 56.034 6.61388 56.034C9.43486 56.034 11.7278 53.7285 11.7278 50.8922Z" stroke="white" stroke-width="3" stroke-miterlimit="10"/>
<path d="M93.7307 26.5382L93.6751 37.5344H81.6825" stroke="white" stroke-width="3" stroke-miterlimit="22.9256" stroke-linejoin="round"/>
<path d="M93.5361 17.2887C96.3571 17.2887 98.65 19.5941 98.65 22.4305C98.65 25.2669 96.3571 27.5723 93.5361 27.5723C86.8102 27.5723 86.8102 17.2887 93.5361 17.2887Z" stroke="white" stroke-width="3" stroke-miterlimit="10"/>
<path d="M12.7841 26.5382L12.8396 37.5344H24.8323" stroke="white" stroke-width="3" stroke-miterlimit="22.9256" stroke-linejoin="round"/>
<path d="M12.9925 17.2887C10.1716 17.2887 7.87866 19.5941 7.87866 22.4305C7.87866 25.2669 10.1716 27.5723 12.9925 27.5723C19.7184 27.5723 19.7184 17.2887 12.9925 17.2887Z" stroke="white" stroke-width="3" stroke-miterlimit="10"/>
<path d="M93.7307 75.2317L93.6751 64.2495H81.6825" stroke="white" stroke-width="3" stroke-miterlimit="22.9256" stroke-linejoin="round"/>
<path d="M93.5361 84.4954C96.3571 84.4954 98.65 82.19 98.65 79.3536C98.65 76.5172 96.3571 74.2118 93.5361 74.2118C86.8102 74.2118 86.8102 84.4954 93.5361 84.4954Z" stroke="white" stroke-width="3" stroke-miterlimit="10"/>
<path d="M12.7841 75.2317L12.8396 64.2495H24.8323" stroke="white" stroke-width="3" stroke-miterlimit="22.9256" stroke-linejoin="round"/>
<path d="M12.9925 84.4954C10.1716 84.4954 7.87866 82.19 7.87866 79.3536C7.87866 76.5172 10.1716 74.2118 12.9925 74.2118C19.7184 74.2118 19.7184 84.4954 12.9925 84.4954Z" stroke="white" stroke-width="3" stroke-miterlimit="10"/>
<path d="M78.6809 20.7816H28.0007C25.4527 20.7816 23.3871 24.0283 23.3871 28.0332V73.7646C23.3871 77.7695 25.4527 81.0162 28.0007 81.0162H78.6809C81.229 81.0162 83.2946 77.7695 83.2946 73.7646V28.0332C83.2946 24.0283 81.229 20.7816 78.6809 20.7816Z" stroke="white" stroke-width="3" stroke-miterlimit="22.9256"/>
<path d="M72.4134 36.9896H34.2677C32.3567 36.9896 30.8075 38.491 30.8075 40.343V61.4551C30.8075 63.3071 32.3567 64.8085 34.2677 64.8085H72.4134C74.3244 64.8085 75.8736 63.3071 75.8736 61.4551V40.343C75.8736 38.491 74.3244 36.9896 72.4134 36.9896Z" stroke="white" stroke-width="3" stroke-miterlimit="22.9256"/>
<path d="M73.6086 44.5625C70.0928 44.5625 67.2301 41.6843 67.2301 38.1493C67.2301 37.7441 67.2718 37.3528 67.3413 36.9756H72.5385C74.3729 36.9756 75.8737 38.4846 75.8737 40.3289V44.1434C75.165 44.4088 74.4007 44.5625 73.6086 44.5625Z" stroke="white" stroke-width="3" stroke-miterlimit="10"/>
<path d="M53.3335 56.0339C50.5125 56.0339 48.2196 53.7284 48.2196 50.8921C48.2196 48.0557 50.5125 45.7502 53.3335 45.7502C56.1545 45.7502 58.4474 48.0557 58.4474 50.8921C58.4474 53.7284 56.1545 56.0339 53.3335 56.0339Z" stroke="white" stroke-width="3" stroke-miterlimit="10"/>
<path d="M33.0726 44.5627C36.5884 44.5627 39.4511 41.6844 39.4511 38.1494C39.4511 37.7442 39.4094 37.353 39.3399 36.9757H34.1426C32.3083 36.9757 30.8075 38.4847 30.8075 40.3291V44.1435C31.5162 44.409 32.2805 44.5627 33.0726 44.5627Z" stroke="white" stroke-width="3" stroke-miterlimit="10"/>
<path d="M73.6086 57.2214C70.0928 57.2214 67.2301 60.0997 67.2301 63.6347C67.2301 64.0399 67.2718 64.4311 67.3413 64.8084H72.5385C74.3729 64.8084 75.8737 63.2994 75.8737 61.455V57.6406C75.165 57.3751 74.4007 57.2214 73.6086 57.2214Z" stroke="white" stroke-width="3" stroke-miterlimit="10"/>
<path d="M33.0726 57.2214C36.5884 57.2214 39.4511 60.0997 39.4511 63.6347C39.4511 64.0399 39.4094 64.4311 39.3399 64.8084H34.1426C32.3083 64.8084 30.8075 63.2994 30.8075 61.455V57.6406C31.5162 57.3751 32.2805 57.2214 33.0726 57.2214Z" stroke="white" stroke-width="3" stroke-miterlimit="10"/>
</svg>
