<svg width="741" height="656" viewBox="0 0 741 656" fill="none" xmlns="http://www.w3.org/2000/svg">
<path fill-rule="evenodd" clip-rule="evenodd" d="M232.662 189.386L231.701 191.303V193.08H235.495V189.386H232.662ZM211.517 231.475L210.627 233.229V235.146H214.42V231.452H211.517V231.475ZM190.372 273.564L189.553 275.178V277.259H193.346V273.564H190.349H190.372ZM169.228 315.654L168.502 317.104V319.325H172.295V315.63H169.228V315.654ZM148.083 357.743L147.427 359.053V361.438H151.221V357.743H148.083ZM126.938 399.833L126.353 400.978V403.527H130.146V399.833H126.915H126.938ZM105.794 441.922L105.302 442.927V445.617H109.095V441.922H105.794ZM84.6489 484.011L84.2274 484.853V487.706H88.0208V484.011H84.6489ZM63.5042 526.101L63.153 526.779V529.772H66.9464V526.077H63.5042V526.101ZM42.3595 568.19L42.102 568.728V571.885H45.8954V568.19H42.3595ZM21.2149 610.28L21.0275 610.654V613.974H24.8209V610.28H21.2149ZM0.0702051 652.369L-0.046875 652.603V656.017H3.74652V652.369H0.0702051ZM21.0275 656.017H24.8209V652.369H21.0275V656.017ZM168.455 654.988C169.743 654.824 171.007 654.661 172.248 654.474V652.392H168.455V655.011V654.988ZM256.499 168.411V172.106H252.706V168.411H256.499ZM277.55 168.411V172.106H273.757V168.411H277.55ZM298.601 168.411V172.106H294.808V168.411H298.601ZM319.652 168.411V172.106H315.859V168.411H319.652ZM340.703 168.411V172.106H336.91V168.411H340.703ZM361.754 168.411V172.106H357.961V168.411H361.754ZM382.805 168.411V172.106H379.012V168.411H382.805ZM403.856 168.411V172.106H400.063V168.411H403.856ZM256.429 189.456V193.15H252.635V189.456H256.429ZM277.48 189.456V193.15H273.686V189.456H277.48ZM298.531 189.456V193.15H294.737V189.456H298.531ZM319.582 189.456V193.15H315.788V189.456H319.582ZM340.633 189.456V193.15H336.839V189.456H340.633ZM361.684 189.456V193.15H357.89V189.456H361.684ZM382.735 189.456V193.15H378.941V189.456H382.735ZM403.786 189.456V193.15H399.992V189.456H403.786ZM235.284 210.5V214.195H231.491V210.5H235.284ZM256.335 210.5V214.195H252.542V210.5H256.335ZM277.386 210.5V214.195H273.593V210.5H277.386ZM298.437 210.5V214.195H294.644V210.5H298.437ZM319.488 210.5V214.195H315.695V210.5H319.488ZM340.539 210.5V214.195H336.746V210.5H340.539ZM361.59 210.5V214.195H357.797V210.5H361.59ZM382.641 210.5V214.195H378.848V210.5H382.641ZM235.214 231.545V235.24H231.421V231.545H235.214ZM256.265 231.545V235.24H252.472V231.545H256.265ZM277.316 231.545V235.24H273.523V231.545H277.316ZM298.367 231.545V235.24H294.574V231.545H298.367ZM319.418 231.545V235.24H315.625V231.545H319.418ZM340.469 231.545V235.24H336.676V231.545H340.469ZM361.52 231.545V235.24H357.727V231.545H361.52ZM382.571 231.545V235.24H378.778V231.545H382.571ZM214.069 252.59V256.284H210.276V252.59H214.069ZM235.12 252.59V256.284H231.327V252.59H235.12ZM256.171 252.59V256.284H252.378V252.59H256.171ZM277.222 252.59V256.284H273.429V252.59H277.222ZM298.273 252.59V256.284H294.48V252.59H298.273ZM319.324 252.59V256.284H315.531V252.59H319.324ZM340.375 252.59V256.284H336.582V252.59H340.375ZM361.426 252.59V256.284H357.633V252.59H361.426ZM213.999 273.635V277.329H210.206V273.635H213.999ZM235.05 273.635V277.329H231.257V273.635H235.05ZM256.101 273.635V277.329H252.308V273.635H256.101ZM277.152 273.635V277.329H273.359V273.635H277.152ZM298.203 273.635V277.329H294.41V273.635H298.203ZM319.254 273.635V277.329H315.461V273.635H319.254ZM340.305 273.635V277.329H336.512V273.635H340.305ZM361.356 273.635V277.329H357.563V273.635H361.356ZM192.854 294.679V298.374H189.061V294.679H192.854ZM213.905 294.679V298.374H210.112V294.679H213.905ZM234.956 294.679V298.374H231.163V294.679H234.956ZM256.007 294.679V298.374H252.214V294.679H256.007ZM277.058 294.679V298.374H273.265V294.679H277.058ZM298.109 294.679V298.374H294.316V294.679H298.109ZM319.16 294.679V298.374H315.367V294.679H319.16ZM340.211 294.679V298.374H336.418V294.679H340.211ZM192.784 315.724V319.418H188.991V315.724H192.784ZM213.835 315.724V319.418H210.042V315.724H213.835ZM234.886 315.724V319.418H231.093V315.724H234.886ZM255.937 315.724V319.418H252.144V315.724H255.937ZM276.988 315.724V319.418H273.195V315.724H276.988ZM298.039 315.724V319.418H294.246V315.724H298.039ZM319.09 315.724V319.418H315.297V315.724H319.09ZM340.141 315.724V319.418H336.348V315.724H340.141ZM171.639 336.769V340.463H167.846V336.769H171.639ZM192.69 336.769V340.463H188.897V336.769H192.69ZM213.741 336.769V340.463H209.948V336.769H213.741ZM234.792 336.769V340.463H230.999V336.769H234.792ZM255.843 336.769V340.463H252.05V336.769H255.843ZM276.894 336.769V340.463H273.101V336.769H276.894ZM297.945 336.769V340.463H294.152V336.769H297.945ZM318.996 336.769V340.463H315.203V336.769H318.996ZM171.569 357.813V361.508H167.776V357.813H171.569ZM192.62 357.813V361.508H188.827V357.813H192.62ZM213.671 357.813V361.508H209.878V357.813H213.671ZM234.722 357.813V361.508H230.929V357.813H234.722ZM255.773 357.813V361.508H251.98V357.813H255.773ZM276.824 357.813V361.508H273.031V357.813H276.824ZM297.875 357.813V361.508H294.082V357.813H297.875ZM318.926 357.813V361.508H315.133V357.813H318.926ZM150.424 378.858V382.553H146.631V378.858H150.424ZM171.475 378.858V382.553H167.682V378.858H171.475ZM192.526 378.858V382.553H188.733V378.858H192.526ZM213.577 378.858V382.553H209.784V378.858H213.577ZM234.628 378.858V382.553H230.835V378.858H234.628ZM255.68 378.858V382.553H251.886V378.858H255.68ZM276.73 378.858V382.553H272.937V378.858H276.73ZM297.782 378.858V382.553H293.988V378.858H297.782ZM150.354 399.903V403.597H146.561V399.903H150.354ZM171.405 399.903V403.597H167.612V399.903H171.405ZM192.456 399.903V403.597H188.663V399.903H192.456ZM213.507 399.903V403.597H209.714V399.903H213.507ZM234.558 399.903V403.597H230.765V399.903H234.558ZM255.609 399.903V403.597H251.816V399.903H255.609ZM276.66 399.903V403.597H272.867V399.903H276.66ZM297.711 399.903V403.597H293.918V399.903H297.711ZM129.21 420.947V424.642H125.416V420.947H129.21ZM150.261 420.947V424.642H146.467V420.947H150.261ZM171.312 420.947V424.642H167.518V420.947H171.312ZM192.363 420.947V424.642H188.569V420.947H192.363ZM213.414 420.947V424.642H209.62V420.947H213.414ZM234.465 420.947V424.642H230.671V420.947H234.465ZM255.516 420.947V424.642H251.722V420.947H255.516ZM276.567 420.947V424.642H272.773V420.947H276.567ZM129.139 441.992V445.687H125.346V441.992H129.139ZM150.19 441.992V445.687H146.397V441.992H150.19ZM171.241 441.992V445.687H167.448V441.992H171.241ZM192.292 441.992V445.687H188.499V441.992H192.292ZM213.343 441.992V445.687H209.55V441.992H213.343ZM234.394 441.992V445.687H230.601V441.992H234.394ZM255.445 441.992V445.687H251.652V441.992H255.445ZM276.496 441.992V445.687H272.703V441.992H276.496ZM107.995 463.037V466.731H104.201V463.037H107.995ZM129.046 463.037V466.731H125.252V463.037H129.046ZM150.097 463.037V466.731H146.303V463.037H150.097ZM171.148 463.037V466.731H167.354V463.037H171.148ZM192.199 463.037V466.731H188.405V463.037H192.199ZM213.25 463.037V466.731H209.456V463.037H213.25ZM234.301 463.037V466.731H230.507V463.037H234.301ZM255.352 463.037V466.731H251.558V463.037H255.352ZM107.924 484.082V487.776H104.131V484.082H107.924ZM128.975 484.082V487.776H125.182V484.082H128.975ZM150.026 484.082V487.776H146.233V484.082H150.026ZM171.077 484.082V487.776H167.284V484.082H171.077ZM192.128 484.082V487.776H188.335V484.082H192.128ZM213.179 484.082V487.776H209.386V484.082H213.179ZM234.23 484.082V487.776H230.437V484.082H234.23ZM255.281 484.082V487.776H251.488V484.082H255.281ZM86.7797 505.126V508.821H82.9863V505.126H86.7797ZM107.831 505.126V508.821H104.037V505.126H107.831ZM128.882 505.126V508.821H125.088V505.126H128.882ZM149.933 505.126V508.821H146.139V505.126H149.933ZM170.984 505.126V508.821H167.19V505.126H170.984ZM192.035 505.126V508.821H188.241V505.126H192.035ZM213.086 505.126V508.821H209.292V505.126H213.086ZM234.137 505.126V508.821H230.343V505.126H234.137ZM255.188 505.126V508.821H251.394V505.126H255.188ZM276.239 505.126V508.821H272.445V505.126H276.239ZM86.6861 526.171V529.866H82.8927V526.171H86.6861ZM107.737 526.171V529.866H103.944V526.171H107.737ZM128.788 526.171V529.866H124.995V526.171H128.788ZM149.839 526.171V529.866H146.046V526.171H149.839ZM170.89 526.171V529.866H167.097V526.171H170.89ZM191.941 526.171V529.866H188.148V526.171H191.941ZM212.992 526.171V529.866H209.199V526.171H212.992ZM234.043 526.171V529.866H230.25V526.171H234.043ZM255.094 526.171V529.866H251.301V526.171H255.094ZM276.145 526.171V529.866H272.352V526.171H276.145ZM65.518 547.216V550.91H61.7246V547.216H65.518ZM86.569 547.216V550.91H82.7756V547.216H86.569ZM107.62 547.216V550.91H103.827V547.216H107.62ZM128.671 547.216V550.91H124.878V547.216H128.671ZM149.722 547.216V550.91H145.929V547.216H149.722ZM170.773 547.216V550.91H166.98V547.216H170.773ZM191.824 547.216V550.91H188.031V547.216H191.824ZM212.875 547.216V550.91H209.082V547.216H212.875ZM233.926 547.216V550.91H230.133V547.216H233.926ZM254.977 547.216V550.91H251.184V547.216H254.977ZM65.4243 568.26V571.955H61.6309V568.26H65.4243ZM86.4753 568.26V571.955H82.6819V568.26H86.4753ZM107.526 568.26V571.955H103.733V568.26H107.526ZM128.577 568.26V571.955H124.784V568.26H128.577ZM149.628 568.26V571.955H145.835V568.26H149.628ZM170.679 568.26V571.955H166.886V568.26H170.679ZM191.73 568.26V571.955H187.937V568.26H191.73ZM212.781 568.26V571.955H208.988V568.26H212.781ZM233.832 568.26V571.955H230.039V568.26H233.832ZM254.883 568.26V571.955H251.09V568.26H254.883ZM44.2562 589.305V593H40.4628V589.305H44.2562ZM65.3072 589.305V593H61.5139V589.305H65.3072ZM86.3583 589.305V593H82.5648V589.305H86.3583ZM107.409 589.305V593H103.616V589.305H107.409ZM128.46 589.305V593H124.667V589.305H128.46ZM149.511 589.305V593H145.718V589.305H149.511ZM170.562 589.305V593H166.769V589.305H170.562ZM191.613 589.305V593H187.82V589.305H191.613ZM212.664 589.305V593H208.871V589.305H212.664ZM233.715 589.305V593H229.922V589.305H233.715ZM44.1626 610.35V614.044H40.3692V610.35H44.1626ZM65.2136 610.35V614.044H61.4202V610.35H65.2136ZM86.2646 610.35V614.044H82.4712V610.35H86.2646ZM107.316 610.35V614.044H103.522V610.35H107.316ZM128.367 610.35V614.044H124.573V610.35H128.367ZM149.418 610.35V614.044H145.624V610.35H149.418ZM170.469 610.35V614.044H166.675V610.35H170.469ZM191.52 610.35V614.044H187.726V610.35H191.52ZM212.571 610.35V614.044H208.777V610.35H212.571ZM233.622 610.35V614.044H229.828V610.35H233.622ZM22.9945 631.394V635.089H19.2011V631.394H22.9945ZM44.0455 631.394V635.089H40.2521V631.394H44.0455ZM65.0965 631.394V635.089H61.3031V631.394H65.0965ZM86.1475 631.394V635.089H82.3541V631.394H86.1475ZM107.199 631.394V635.089H103.405V631.394H107.199ZM128.25 631.394V635.089H124.456V631.394H128.25ZM149.301 631.394V635.089H145.507V631.394H149.301ZM170.352 631.394V635.089H166.558V631.394H170.352ZM191.403 631.394V635.089H187.609V631.394H191.403ZM212.454 631.394V635.089H208.66V631.394H212.454ZM43.9518 652.439V656.134H40.1584V652.439H43.9518ZM65.0028 652.439V656.134H61.2094V652.439H65.0028ZM86.0538 652.439V656.134H82.2605V652.439H86.0538ZM107.105 652.439V656.134H103.311V652.439H107.105ZM128.156 652.439V656.134H124.362V652.439H128.156ZM149.207 652.439V656.134H145.413V652.439H149.207Z" fill="#C7080D"/>
<path fill-rule="evenodd" clip-rule="evenodd" d="M508.455 466.614L509.298 464.907V462.92H505.505V466.614H508.455ZM529.6 424.525L530.373 422.982V420.831H526.579V424.525H529.6ZM550.745 382.436L551.447 381.033V378.741H547.654V382.436H550.745ZM571.889 340.346L572.522 339.107V336.652H568.728V340.346H571.913H571.889ZM593.034 298.257L593.573 297.181V294.586H589.779V298.28H593.034V298.257ZM614.179 256.167L614.647 255.232V252.473H610.854V256.167H614.179ZM635.323 214.078L635.721 213.306V210.407H631.928V214.101H635.323V214.078ZM656.468 171.989L656.772 171.357V168.294H652.979V171.989H656.468ZM677.613 129.899L677.847 129.432V126.205H674.053V129.899H677.613ZM698.757 87.8098L698.921 87.4824V84.1153H695.128V87.8098H698.757ZM719.902 45.7204L719.996 45.5567V42.0259H716.202V45.7204H719.925H719.902ZM741.047 3.63098V3.6076V0.00661794H737.253V3.63098H741.047ZM719.996 0.00661794H716.202V3.63098H719.996V0.00661794ZM591.676 -0.0635311C591.044 -0.0635311 590.435 -0.0635311 589.826 -0.0635311V3.6076H593.619V-0.0869141H591.676V-0.0635311ZM572.568 1.05885C571.281 1.22253 570.016 1.38622 568.775 1.59666V3.65437H572.568V1.08224V1.05885ZM614.694 -0.0635311V3.63098H610.9V-0.0635311H614.694ZM635.745 -0.0635311V3.63098H631.951V-0.0635311H635.745ZM656.796 -0.0635311V3.63098H653.002V-0.0635311H656.796ZM677.847 -0.0635311V3.63098H674.053V-0.0635311H677.847ZM698.898 -0.0635311V3.63098H695.104V-0.0635311H698.898ZM530.396 20.9812V24.6757H526.603V20.9812H530.396ZM551.447 20.9812V24.6757H547.654V20.9812H551.447ZM572.498 20.9812V24.6757H568.705V20.9812H572.498ZM593.549 20.9812V24.6757H589.756V20.9812H593.549ZM614.6 20.9812V24.6757H610.807V20.9812H614.6ZM635.651 20.9812V24.6757H631.858V20.9812H635.651ZM656.702 20.9812V24.6757H652.909V20.9812H656.702ZM677.753 20.9812V24.6757H673.96V20.9812H677.753ZM698.804 20.9812V24.6757H695.011V20.9812H698.804ZM719.855 20.9812V24.6757H716.062V20.9812H719.855ZM509.228 42.0259V45.7204H505.435V42.0259H509.228ZM530.279 42.0259V45.7204H526.486V42.0259H530.279ZM551.33 42.0259V45.7204H547.537V42.0259H551.33ZM572.381 42.0259V45.7204H568.588V42.0259H572.381ZM593.432 42.0259V45.7204H589.639V42.0259H593.432ZM614.483 42.0259V45.7204H610.69V42.0259H614.483ZM635.534 42.0259V45.7204H631.741V42.0259H635.534ZM656.585 42.0259V45.7204H652.792V42.0259H656.585ZM677.636 42.0259V45.7204H673.843V42.0259H677.636ZM698.687 42.0259V45.7204H694.894V42.0259H698.687ZM509.134 63.0706V66.7651H505.341V63.0706H509.134ZM530.185 63.0706V66.7651H526.392V63.0706H530.185ZM551.236 63.0706V66.7651H547.443V63.0706H551.236ZM572.287 63.0706V66.7651H568.494V63.0706H572.287ZM593.338 63.0706V66.7651H589.545V63.0706H593.338ZM614.389 63.0706V66.7651H610.596V63.0706H614.389ZM635.44 63.0706V66.7651H631.647V63.0706H635.44ZM656.491 63.0706V66.7651H652.698V63.0706H656.491ZM677.542 63.0706V66.7651H673.749V63.0706H677.542ZM698.593 63.0706V66.7651H694.8V63.0706H698.593ZM487.966 84.1153V87.8098H484.173V84.1153H487.966ZM509.017 84.1153V87.8098H505.224V84.1153H509.017ZM530.068 84.1153V87.8098H526.275V84.1153H530.068ZM551.119 84.1153V87.8098H547.326V84.1153H551.119ZM572.17 84.1153V87.8098H568.377V84.1153H572.17ZM593.221 84.1153V87.8098H589.428V84.1153H593.221ZM614.272 84.1153V87.8098H610.479V84.1153H614.272ZM635.323 84.1153V87.8098H631.53V84.1153H635.323ZM656.374 84.1153V87.8098H652.581V84.1153H656.374ZM677.425 84.1153V87.8098H673.632V84.1153H677.425ZM487.873 105.16V108.854H484.079V105.16H487.873ZM508.924 105.16V108.854H505.13V105.16H508.924ZM529.975 105.16V108.854H526.181V105.16H529.975ZM551.026 105.16V108.854H547.232V105.16H551.026ZM572.077 105.16V108.854H568.283V105.16H572.077ZM593.128 105.16V108.854H589.334V105.16H593.128ZM614.179 105.16V108.854H610.385V105.16H614.179ZM635.23 105.16V108.854H631.436V105.16H635.23ZM656.281 105.16V108.854H652.487V105.16H656.281ZM677.332 105.16V108.854H673.538V105.16H677.332ZM466.705 126.205V129.899H462.911V126.205H466.705ZM487.756 126.205V129.899H483.962V126.205H487.756ZM508.807 126.205V129.899H505.013V126.205H508.807ZM529.858 126.205V129.899H526.064V126.205H529.858ZM550.909 126.205V129.899H547.115V126.205H550.909ZM571.96 126.205V129.899H568.166V126.205H571.96ZM593.011 126.205V129.899H589.217V126.205H593.011ZM614.062 126.205V129.899H610.268V126.205H614.062ZM635.113 126.205V129.899H631.319V126.205H635.113ZM656.164 126.205V129.899H652.37V126.205H656.164ZM466.611 147.249V150.944H462.818V147.249H466.611ZM487.662 147.249V150.944H483.869V147.249H487.662ZM508.713 147.249V150.944H504.92V147.249H508.713ZM529.764 147.249V150.944H525.971V147.249H529.764ZM550.815 147.249V150.944H547.022V147.249H550.815ZM571.866 147.249V150.944H568.073V147.249H571.866ZM592.917 147.249V150.944H589.124V147.249H592.917ZM613.968 147.249V150.944H610.174V147.249H613.968ZM635.019 147.249V150.944H631.226V147.249H635.019ZM656.07 147.249V150.944H652.277V147.249H656.07ZM487.568 168.294V171.989H483.775V168.294H487.568ZM508.619 168.294V171.989H504.826V168.294H508.619ZM529.67 168.294V171.989H525.877V168.294H529.67ZM550.721 168.294V171.989H546.928V168.294H550.721ZM571.772 168.294V171.989H567.979V168.294H571.772ZM592.823 168.294V171.989H589.03V168.294H592.823ZM613.874 168.294V171.989H610.081V168.294H613.874ZM634.925 168.294V171.989H631.132V168.294H634.925ZM487.498 189.339V193.033H483.705V189.339H487.498ZM508.549 189.339V193.033H504.756V189.339H508.549ZM529.6 189.339V193.033H525.807V189.339H529.6ZM550.651 189.339V193.033H546.858V189.339H550.651ZM571.702 189.339V193.033H567.909V189.339H571.702ZM592.753 189.339V193.033H588.96V189.339H592.753ZM613.804 189.339V193.033H610.011V189.339H613.804ZM634.855 189.339V193.033H631.062V189.339H634.855ZM466.353 210.383V214.078H462.56V210.383H466.353ZM487.404 210.383V214.078H483.611V210.383H487.404ZM508.455 210.383V214.078H504.662V210.383H508.455ZM529.506 210.383V214.078H525.713V210.383H529.506ZM550.557 210.383V214.078H546.764V210.383H550.557ZM571.608 210.383V214.078H567.815V210.383H571.608ZM592.659 210.383V214.078H588.866V210.383H592.659ZM613.71 210.383V214.078H609.917V210.383H613.71ZM466.283 231.428V235.123H462.49V231.428H466.283ZM487.334 231.428V235.123H483.541V231.428H487.334ZM508.385 231.428V235.123H504.592V231.428H508.385ZM529.436 231.428V235.123H525.643V231.428H529.436ZM550.487 231.428V235.123H546.694V231.428H550.487ZM571.538 231.428V235.123H567.745V231.428H571.538ZM592.589 231.428V235.123H588.796V231.428H592.589ZM613.64 231.428V235.123H609.847V231.428H613.64ZM445.138 252.473V256.167H441.345V252.473H445.138ZM466.189 252.473V256.167H462.396V252.473H466.189ZM487.24 252.473V256.167H483.447V252.473H487.24ZM508.291 252.473V256.167H504.498V252.473H508.291ZM529.342 252.473V256.167H525.549V252.473H529.342ZM550.393 252.473V256.167H546.6V252.473H550.393ZM571.444 252.473V256.167H567.651V252.473H571.444ZM592.495 252.473V256.167H588.702V252.473H592.495ZM445.068 273.518V277.212H441.275V273.518H445.068ZM466.119 273.518V277.212H462.326V273.518H466.119ZM487.17 273.518V277.212H483.377V273.518H487.17ZM508.221 273.518V277.212H504.428V273.518H508.221ZM529.272 273.518V277.212H525.479V273.518H529.272ZM550.323 273.518V277.212H546.53V273.518H550.323ZM571.374 273.518V277.212H567.581V273.518H571.374ZM592.425 273.518V277.212H588.632V273.518H592.425ZM423.924 294.562V298.257H420.13V294.562H423.924ZM444.975 294.562V298.257H441.181V294.562H444.975ZM466.026 294.562V298.257H462.232V294.562H466.026ZM487.077 294.562V298.257H483.283V294.562H487.077ZM508.128 294.562V298.257H504.334V294.562H508.128ZM529.179 294.562V298.257H525.385V294.562H529.179ZM550.23 294.562V298.257H546.436V294.562H550.23ZM571.281 294.562V298.257H567.487V294.562H571.281ZM423.853 315.607V319.302H420.06V315.607H423.853ZM444.904 315.607V319.302H441.111V315.607H444.904ZM465.955 315.607V319.302H462.162V315.607H465.955ZM487.006 315.607V319.302H483.213V315.607H487.006ZM508.057 315.607V319.302H504.264V315.607H508.057ZM529.108 315.607V319.302H525.315V315.607H529.108ZM550.159 315.607V319.302H546.366V315.607H550.159ZM571.21 315.607V319.302H567.417V315.607H571.21ZM402.709 336.652V340.346H398.915V336.652H402.709ZM423.76 336.652V340.346H419.966V336.652H423.76ZM444.811 336.652V340.346H441.017V336.652H444.811ZM465.862 336.652V340.346H462.068V336.652H465.862ZM486.913 336.652V340.346H483.119V336.652H486.913ZM507.964 336.652V340.346H504.17V336.652H507.964ZM529.015 336.652V340.346H525.221V336.652H529.015ZM550.066 336.652V340.346H546.272V336.652H550.066ZM402.638 357.696V361.391H398.845V357.696H402.638ZM423.689 357.696V361.391H419.896V357.696H423.689ZM444.74 357.696V361.391H440.947V357.696H444.74ZM465.791 357.696V361.391H461.998V357.696H465.791ZM486.842 357.696V361.391H483.049V357.696H486.842ZM507.893 357.696V361.391H504.1V357.696H507.893ZM528.944 357.696V361.391H525.151V357.696H528.944ZM549.995 357.696V361.391H546.202V357.696H549.995ZM381.494 378.741V382.436H377.7V378.741H381.494ZM402.545 378.741V382.436H398.751V378.741H402.545ZM423.596 378.741V382.436H419.802V378.741H423.596ZM444.647 378.741V382.436H440.853V378.741H444.647ZM465.698 378.741V382.436H461.904V378.741H465.698ZM486.749 378.741V382.436H482.955V378.741H486.749ZM507.8 378.741V382.436H504.006V378.741H507.8ZM528.851 378.741V382.436H525.057V378.741H528.851ZM381.423 399.786V403.48H377.63V399.786H381.423ZM402.474 399.786V403.48H398.681V399.786H402.474ZM423.525 399.786V403.48H419.732V399.786H423.525ZM444.576 399.786V403.48H440.783V399.786H444.576ZM465.627 399.786V403.48H461.834V399.786H465.627ZM486.678 399.786V403.48H482.885V399.786H486.678ZM507.729 399.786V403.48H503.936V399.786H507.729ZM528.78 399.786V403.48H524.987V399.786H528.78ZM360.279 420.831V424.525H356.485V420.831H360.279ZM381.33 420.831V424.525H377.536V420.831H381.33ZM402.381 420.831V424.525H398.587V420.831H402.381ZM423.432 420.831V424.525H419.638V420.831H423.432ZM444.483 420.831V424.525H440.689V420.831H444.483ZM465.534 420.831V424.525H461.74V420.831H465.534ZM486.585 420.831V424.525H482.791V420.831H486.585ZM507.636 420.831V424.525H503.842V420.831H507.636ZM360.209 441.875V445.57H356.415V441.875H360.209ZM381.26 441.875V445.57H377.466V441.875H381.26ZM402.311 441.875V445.57H398.517V441.875H402.311ZM423.362 441.875V445.57H419.568V441.875H423.362ZM444.413 441.875V445.57H440.619V441.875H444.413ZM465.464 441.875V445.57H461.67V441.875H465.464ZM486.515 441.875V445.57H482.721V441.875H486.515ZM507.566 441.875V445.57H503.772V441.875H507.566ZM339.064 462.92V466.614H335.27V462.92H339.064ZM360.115 462.92V466.614H356.321V462.92H360.115ZM381.166 462.92V466.614H377.372V462.92H381.166ZM402.217 462.92V466.614H398.423V462.92H402.217ZM423.268 462.92V466.614H419.474V462.92H423.268ZM444.319 462.92V466.614H440.525V462.92H444.319ZM465.37 462.92V466.614H461.576V462.92H465.37ZM486.421 462.92V466.614H482.627V462.92H486.421ZM338.994 483.965V487.659H335.2V483.965H338.994ZM360.045 483.965V487.659H356.251V483.965H360.045ZM381.096 483.965V487.659H377.302V483.965H381.096ZM402.147 483.965V487.659H398.353V483.965H402.147ZM423.198 483.965V487.659H419.404V483.965H423.198ZM444.249 483.965V487.659H440.455V483.965H444.249ZM465.3 483.965V487.659H461.506V483.965H465.3ZM486.351 483.965V487.659H482.557V483.965H486.351Z" fill="#C7080D"/>
</svg>
