<svg width="62" height="54" viewBox="0 0 62 54" fill="none" xmlns="http://www.w3.org/2000/svg">
<g clip-path="url(#clip0_64_49)">
<path d="M56.4927 0.996582H5.61346C3.06336 0.996582 0.996094 3.06454 0.996094 5.61549V34.7705C0.996094 37.3214 3.06336 39.3894 5.61346 39.3894H56.4927C59.0428 39.3894 61.1101 37.3214 61.1101 34.7705V5.61549C61.1101 3.06454 59.0428 0.996582 56.4927 0.996582Z" stroke="#C7080D" stroke-width="1.88949" stroke-miterlimit="22.9256"/>
<path d="M0.996094 31.7991H61.1101" stroke="#C7080D" stroke-width="1.88949" stroke-miterlimit="22.9256"/>
<path d="M6.71627 36.3885C7.23603 36.3885 7.65739 35.967 7.65739 35.447C7.65739 34.9271 7.23603 34.5056 6.71627 34.5056C6.1965 34.5056 5.77515 34.9271 5.77515 35.447C5.77515 35.967 6.1965 36.3885 6.71627 36.3885Z" fill="#C7080D"/>
<path d="M18.7743 34.5056H10.1278C9.55118 34.5056 9.08374 34.9271 9.08374 35.447C9.08374 35.967 9.55118 36.3885 10.1278 36.3885H18.7743C19.3509 36.3885 19.8184 35.967 19.8184 35.447C19.8184 34.9271 19.3509 34.5056 18.7743 34.5056Z" fill="#C7080D"/>
<path d="M27.7297 39.301V43.4051" stroke="#C7080D" stroke-width="1.88949" stroke-miterlimit="22.9256"/>
<path d="M34.3765 39.301V43.4051" stroke="#C7080D" stroke-width="1.88949" stroke-miterlimit="22.9256"/>
<path d="M38.3467 43.1992H23.2594C22.2605 43.1992 21.4507 43.6207 21.4507 44.1407C21.4507 44.6606 22.2605 45.0821 23.2594 45.0821H38.3467C39.3456 45.0821 40.1554 44.6606 40.1554 44.1407C40.1554 43.6207 39.3456 43.1992 38.3467 43.1992Z" fill="#C7080D"/>
<path d="M55.8164 6.20391C56.3361 6.20391 56.7575 5.78242 56.7575 5.26248C56.7575 4.74254 56.3361 4.32104 55.8164 4.32104C55.2966 4.32104 54.8752 4.74254 54.8752 5.26248C54.8752 5.78242 55.2966 6.20391 55.8164 6.20391Z" fill="#C7080D"/>
<path d="M52.4047 4.32104H43.7582C43.1815 4.32104 42.7141 4.74254 42.7141 5.26248C42.7141 5.78242 43.1815 6.20391 43.7582 6.20391H52.4047C52.9813 6.20391 53.4488 5.78242 53.4488 5.26248C53.4488 4.74254 52.9813 4.32104 52.4047 4.32104Z" fill="#C7080D"/>
<path d="M13.3042 21.9141C13.2601 21.8994 13.2306 21.8846 13.1865 21.8699C12.863 21.7376 12.5248 21.7376 12.2013 21.8994L11.0984 22.4583C10.6426 22.6937 10.1132 22.6054 9.74556 22.2377L8.58387 21.0756C8.21624 20.7079 8.14272 20.1783 8.36329 19.7223L8.92208 18.6191C9.08384 18.2954 9.09854 17.9571 8.95149 17.6335C8.93679 17.5894 8.92208 17.5599 8.90738 17.5158C8.77503 17.1922 8.52505 16.9568 8.18683 16.8392L7.01043 16.4567C6.52517 16.2949 6.20166 15.8536 6.20166 15.3535V13.706C6.20166 13.1911 6.52517 12.7498 7.01043 12.6027L8.18683 12.2203C8.52505 12.1173 8.77503 11.8819 8.90738 11.5436C8.92208 11.4995 8.93679 11.47 8.95149 11.4259C9.08384 11.1023 9.08384 10.764 8.92208 10.4404L8.36329 9.33711C8.12801 8.88111 8.21624 8.35155 8.58387 7.9838L9.74556 6.82172C10.1132 6.45398 10.6426 6.38043 11.0984 6.60107L12.2013 7.16005C12.5248 7.32186 12.863 7.33657 13.1865 7.18947C13.2306 7.17476 13.2601 7.16005 13.3042 7.14534C13.6277 7.01295 13.863 6.76288 13.9806 6.42456L14.3629 5.24776C14.5247 4.76234 14.9511 4.43872 15.4658 4.43872H17.1128C17.6274 4.43872 18.0686 4.76234 18.2156 5.24776L18.598 6.42456C18.7156 6.76288 18.9362 7.01295 19.2744 7.14534C19.3185 7.16005 19.3479 7.17476 19.392 7.18947C19.7155 7.32186 20.0538 7.32186 20.3773 7.16005L21.4801 6.60107C21.936 6.36572 22.4654 6.45398 22.833 6.82172L23.9947 7.9838C24.3623 8.35155 24.4358 8.88111 24.2153 9.33711L23.6565 10.4404C23.4947 10.764 23.48 11.1023 23.6271 11.4259C23.6418 11.47 23.6565 11.4995 23.6712 11.5436C23.8035 11.8672 24.0535 12.1026 24.3917 12.2203L25.5681 12.6027C26.0534 12.7645 26.3769 13.2058 26.3769 13.706V15.3535C26.3769 15.8683 26.0534 16.3096 25.5681 16.4567L24.3917 16.8392C24.0535 16.9568 23.8035 17.1775 23.6712 17.5158C23.6565 17.5599 23.6418 17.5894 23.6271 17.6335C23.4947 17.9571 23.4947 18.2954 23.6565 18.6191L24.2153 19.7223C24.4506 20.1783 24.3623 20.7079 23.9947 21.0756L22.833 22.2524C22.4654 22.6201 21.936 22.6937 21.4801 22.473L20.3773 21.9141C20.0538 21.7523 19.7155 21.7376 19.392 21.8846C19.3479 21.8994 19.3185 21.9141 19.2744 21.9288C18.9509 22.0612 18.7156 22.3112 18.598 22.6496L18.2156 23.8264C18.0539 24.3118 17.6127 24.6354 17.1128 24.6354H15.4658C14.9511 24.6354 14.51 24.3118 14.3629 23.8264L13.9806 22.6496C13.863 22.3112 13.6424 22.0612 13.3189 21.9288L13.3042 21.9141ZM16.2893 20.0606C13.2454 20.0606 10.7602 17.5747 10.7602 14.5297C10.7602 11.4848 13.2454 8.99879 16.2893 8.99879C19.3332 8.99879 21.8184 11.4848 21.8184 14.5297C21.8184 17.5747 19.3332 20.0606 16.2893 20.0606Z" stroke="#C7080D" stroke-width="1.88949" stroke-miterlimit="10"/>
<path d="M51.2871 15.0444H35.7586C33.6796 15.0444 31.9941 16.7304 31.9941 18.8102V49.3479C31.9941 51.4276 33.6796 53.1136 35.7586 53.1136H51.2871C53.3662 53.1136 55.0516 51.4276 55.0516 49.3479V18.8102C55.0516 16.7304 53.3662 15.0444 51.2871 15.0444Z" fill="#EBEBF1" stroke="#C7080D" stroke-width="1.88949" stroke-miterlimit="22.9256"/>
<path fill-rule="evenodd" clip-rule="evenodd" d="M31.9941 19.384H37.832L38.582 20.7226C38.832 21.1786 38.9937 21.6935 39.479 21.6935H47.5667C48.0667 21.6935 48.2137 21.1786 48.4637 20.7226L49.2137 19.384H55.0516V46.8474H31.9941V19.384Z" stroke="#C7080D" stroke-width="1.88949" stroke-miterlimit="22.9256"/>
<path d="M46.4344 48.9656H40.6259C40.2442 48.9656 39.9348 49.3871 39.9348 49.907C39.9348 50.4269 40.2442 50.8484 40.6259 50.8484H46.4344C46.8161 50.8484 47.1256 50.4269 47.1256 49.907C47.1256 49.3871 46.8161 48.9656 46.4344 48.9656Z" fill="#C7080D"/>
<path d="M43.5375 41.7577C47.9474 41.7577 51.5224 38.1815 51.5224 33.7702C51.5224 29.3588 47.9474 25.7827 43.5375 25.7827C39.1277 25.7827 35.5527 29.3588 35.5527 33.7702C35.5527 38.1815 39.1277 41.7577 43.5375 41.7577Z" stroke="#C7080D" stroke-width="1.88949" stroke-miterlimit="22.9256"/>
<path d="M47.8316 30.5193L42.8466 38.4332L39.8909 33.7555" stroke="#C7080D" stroke-width="1.88949" stroke-miterlimit="22.9256" stroke-linecap="round" stroke-linejoin="round"/>
<path d="M46.4344 17.4863H40.6259C40.2442 17.4863 39.9348 17.9078 39.9348 18.4278C39.9348 18.9477 40.2442 19.3692 40.6259 19.3692H46.4344C46.8161 19.3692 47.1256 18.9477 47.1256 18.4278C47.1256 17.9078 46.8161 17.4863 46.4344 17.4863Z" fill="#C7080D"/>
</g>
<defs>
<clipPath id="clip0_64_49">
<rect width="62" height="54" fill="white"/>
</clipPath>
</defs>
</svg>
