<svg width="45" height="46" viewBox="0 0 45 46" fill="none" xmlns="http://www.w3.org/2000/svg">
<g clip-path="url(#clip0_64_184)">
<path d="M7.76636 17.4858V9.61683C7.76636 8.70669 8.16202 7.94824 8.63305 7.94824H15.1709M29.5466 7.94824H36.0845C36.5744 7.94824 36.9512 8.70669 36.9512 9.61683V17.4858" stroke="#C7080D" stroke-width="1.89845" stroke-miterlimit="22.9256"/>
<path fill-rule="evenodd" clip-rule="evenodd" d="M2.75454 17.4858H13.7389C14.7375 17.4858 15.5476 18.3012 15.5476 19.3061V43.2921C15.5476 44.2971 14.7375 45.1124 13.7389 45.1124H2.75454C1.75597 45.1124 0.945801 44.2971 0.945801 43.2921V19.3061C0.945801 18.3012 1.75597 17.4858 2.75454 17.4858Z" fill="#EBEBF1" stroke="#C7080D" stroke-width="1.89845" stroke-miterlimit="22.9256"/>
<path d="M11.7039 23.9326H4.80811" stroke="#C7080D" stroke-width="1.89845" stroke-miterlimit="22.9256" stroke-linecap="round" stroke-linejoin="round"/>
<path d="M11.7039 28.8247H4.80811" stroke="#C7080D" stroke-width="1.89845" stroke-miterlimit="22.9256" stroke-linecap="round" stroke-linejoin="round"/>
<path d="M11.7039 33.7166H4.80811" stroke="#C7080D" stroke-width="1.89845" stroke-miterlimit="22.9256" stroke-linecap="round" stroke-linejoin="round"/>
<path fill-rule="evenodd" clip-rule="evenodd" d="M8.25591 39.386C8.5762 39.386 8.82114 39.6514 8.82114 39.9548C8.82114 40.2772 8.55736 40.5237 8.25591 40.5237C7.93561 40.5237 7.69067 40.2582 7.69067 39.9548C7.69067 39.6325 7.95445 39.386 8.25591 39.386Z" fill="black" stroke="#C7080D" stroke-width="1.89845" stroke-miterlimit="22.9256"/>
<path fill-rule="evenodd" clip-rule="evenodd" d="M31.2611 17.4858H42.2455C43.2441 17.4858 44.0542 18.3012 44.0542 19.3061V43.2921C44.0542 44.2971 43.2441 45.1124 42.2455 45.1124H31.2611C30.2626 45.1124 29.4524 44.2971 29.4524 43.2921V19.3061C29.4524 18.3012 30.2626 17.4858 31.2611 17.4858Z" fill="#EBEBF1" stroke="#C7080D" stroke-width="1.89845" stroke-miterlimit="22.9256"/>
<path d="M40.1917 23.9326H33.2959" stroke="#C7080D" stroke-width="1.89845" stroke-miterlimit="22.9256" stroke-linecap="round" stroke-linejoin="round"/>
<path d="M40.1917 28.8247H33.2959" stroke="#C7080D" stroke-width="1.89845" stroke-miterlimit="22.9256" stroke-linecap="round" stroke-linejoin="round"/>
<path d="M40.1917 33.7166H33.2959" stroke="#C7080D" stroke-width="1.89845" stroke-miterlimit="22.9256" stroke-linecap="round" stroke-linejoin="round"/>
<path fill-rule="evenodd" clip-rule="evenodd" d="M36.7437 39.386C37.064 39.386 37.3089 39.6514 37.3089 39.9548C37.3089 40.2772 37.0452 40.5237 36.7437 40.5237C36.4234 40.5237 36.1785 40.2582 36.1785 39.9548C36.1785 39.6325 36.4422 39.386 36.7437 39.386Z" fill="black" stroke="#C7080D" stroke-width="1.89845" stroke-miterlimit="22.9256"/>
<path d="M20.2579 13.5419C20.2391 13.523 20.2014 13.523 20.1825 13.504C19.9564 13.4092 19.7115 13.4092 19.4854 13.523L18.6941 13.9212C18.3738 14.0918 17.9781 14.0349 17.7332 13.7695L16.9042 12.9352C16.6404 12.6697 16.5839 12.2905 16.7535 11.9681L17.1491 11.1718C17.2622 10.9442 17.281 10.6977 17.168 10.4702C17.1491 10.4512 17.1491 10.4133 17.1303 10.3944C17.0361 10.1668 16.8665 9.99618 16.6216 9.92033L15.7737 9.63592C15.4346 9.52215 15.2085 9.19981 15.2085 8.83954V7.64498C15.2085 7.28472 15.4346 6.96238 15.7737 6.84861L16.6216 6.56419C16.8665 6.48835 17.0361 6.3177 17.1303 6.09016C17.1491 6.0712 17.1491 6.03328 17.168 6.01432C17.2622 5.78678 17.2622 5.54028 17.1491 5.31275L16.7535 4.51638C16.5839 4.19404 16.6404 3.79585 16.9042 3.54935L17.7332 2.71506C17.997 2.4496 18.3738 2.39272 18.6941 2.56337L19.4854 2.96155C19.7115 3.07532 19.9564 3.09428 20.1825 2.98052C20.2014 2.96155 20.2391 2.96155 20.2579 2.94259C20.484 2.84779 20.6536 2.67714 20.7289 2.43064L21.0115 1.57738C21.1246 1.23608 21.4449 1.00854 21.8029 1.00854H22.9899C23.3478 1.00854 23.6681 1.23608 23.7812 1.57738L24.0638 2.43064C24.1392 2.67714 24.3087 2.84779 24.5348 2.94259C24.5537 2.96155 24.5914 2.96155 24.6102 2.98052C24.8363 3.07532 25.0812 3.07532 25.3073 2.96155L26.0986 2.56337C26.4189 2.39272 26.8146 2.4496 27.0595 2.71506L27.8885 3.54935C28.1523 3.81481 28.2088 4.19404 28.0393 4.51638L27.6436 5.31275C27.5306 5.54028 27.5117 5.78678 27.6248 6.01432C27.6436 6.03328 27.6436 6.0712 27.6624 6.09016C27.7567 6.3177 27.9262 6.48835 28.1712 6.56419L29.019 6.84861C29.3581 6.96238 29.5842 7.28472 29.5842 7.64498V8.83954C29.5842 9.19981 29.3581 9.52215 29.019 9.63592L28.1712 9.92033C27.9262 9.99618 27.7567 10.1668 27.6624 10.3944C27.6436 10.4133 27.6436 10.4512 27.6248 10.4702C27.5306 10.6977 27.5306 10.9442 27.6436 11.1718L28.0393 11.9681C28.2088 12.2905 28.1523 12.6887 27.8885 12.9352L27.0595 13.7695C26.7958 14.0349 26.4189 14.0918 26.0986 13.9212L25.3073 13.523C25.0812 13.4092 24.8363 13.3902 24.6102 13.504C24.5914 13.523 24.5537 13.523 24.5348 13.5419C24.3087 13.6367 24.1392 13.8074 24.0638 14.0539L23.7812 14.9071C23.6681 15.2484 23.3478 15.476 22.9899 15.476H21.8029C21.4449 15.476 21.1246 15.2484 21.0115 14.9071L20.7289 14.0539C20.6536 13.8074 20.484 13.6367 20.2579 13.5419ZM22.3869 11.1149C20.8043 11.1149 19.5231 9.82553 19.5231 8.23278C19.5231 6.64004 20.8043 5.35067 22.3869 5.35067C23.9696 5.35067 25.2508 6.64004 25.2508 8.23278C25.2508 9.82553 23.9696 11.1149 22.3869 11.1149Z" stroke="#C7080D" stroke-width="1.89845" stroke-miterlimit="10"/>
</g>
<defs>
<clipPath id="clip0_64_184">
<rect width="45" height="46" fill="white"/>
</clipPath>
</defs>
</svg>
