<svg width="157" height="36" viewBox="0 0 157 36" fill="none" xmlns="http://www.w3.org/2000/svg">
<path fill-rule="evenodd" clip-rule="evenodd" d="M24.5832 8.49136H26.8523L17.3143 27.4311H26.909L40.6451 0.00384987H38.326L38.3279 0H32.3902C29.6059 0 28.1748 1.14457 27.1147 3.31145L24.5822 8.49136H24.5832ZM16.062 27.4311H13.7928L23.3308 8.49136H13.7361L0 35.9177H2.31915L2.31722 35.9215H8.25493C11.0393 35.9215 12.4703 34.7769 13.5304 32.611L16.063 27.4311H16.062ZM40.6451 19.7378H33.1466V27.4234H40.6451V19.7378Z" fill="#C7080D"/>
<path d="M80.2734 27.4407H75.4016V11.5054L68.9968 27.4407H66.8843L60.4795 11.5054V27.4407H55.6422V4.68127H62.4218L67.9405 18.4324L73.4592 4.68127H80.2725V27.4407H80.2734ZM116.147 27.4407H111.275V8.94668H104.632V4.68127H122.756V8.94668H116.147V27.4407ZM130.149 27.8499C127.605 27.8499 125.504 27.0538 123.846 25.4616C122.188 23.8694 121.359 21.7766 121.359 19.1833C121.359 16.7498 122.159 14.7013 123.761 13.0408C125.362 11.3802 127.4 10.5504 129.876 10.5504C132.329 10.5504 134.316 11.386 135.838 13.0581C137.359 14.7302 138.12 16.9192 138.12 19.6271V20.583H125.89C126.027 21.6746 126.515 22.5843 127.355 23.312C128.195 24.0398 129.285 24.4036 130.626 24.4036C131.352 24.4036 132.141 24.2554 132.994 23.9599C133.845 23.6643 134.521 23.2658 135.021 22.7652L136.929 25.5636C135.271 27.0875 133.011 27.8499 130.149 27.8499ZM133.931 17.6469C133.863 16.7141 133.494 15.8728 132.824 15.122C132.154 14.3711 131.172 13.9957 129.877 13.9957C128.651 13.9957 127.696 14.3653 127.016 15.1046C126.334 15.8439 125.937 16.691 125.823 17.6469H133.932H133.931ZM84.7714 4.68031H101.363V8.94572H89.6096V12.9724H95.5031C97.8424 12.9724 99.682 13.6655 101.022 15.0536C102.362 16.4417 103.031 18.1581 103.031 20.2056C103.031 22.2531 102.362 23.9705 101.022 25.3576C99.682 26.7457 97.8424 27.4388 95.5031 27.4388H84.7714V4.67934V4.68031ZM94.8553 17.2369H89.6086V23.1744H94.8553C95.8097 23.1744 96.5872 22.901 97.1889 22.3552C97.7905 21.8094 98.0914 21.0922 98.0914 20.2056C98.0914 19.2959 97.7905 18.573 97.1889 18.0387C96.5872 17.5035 95.8087 17.2369 94.8553 17.2369ZM156.28 27.4398H151.442L147.695 21.8777L143.913 27.4398H139.109L144.935 18.9773L139.45 10.9586H144.287L147.694 16.0422L151.067 10.9586H155.905L150.386 18.9773L156.28 27.4398Z" fill="black"/>
</svg>
