<svg width="157" height="36" viewBox="0 0 157 36" fill="none" xmlns="http://www.w3.org/2000/svg">
<path fill-rule="evenodd" clip-rule="evenodd" d="M24.5832 8.49136H26.8523L17.3143 27.4311H26.909L40.6451 0.00384987H38.326L38.3279 0H32.3902C29.6059 0 28.1748 1.14457 27.1147 3.31145L24.5822 8.49136H24.5832ZM16.062 27.4311H13.7928L23.3308 8.49136H13.7361L0 35.9177H2.31915L2.31722 35.9215H8.25493C11.0393 35.9215 12.4703 34.7769 13.5304 32.611L16.063 27.4311H16.062ZM40.6451 19.7378H33.1466V27.4234H40.6451V19.7378Z" fill="#C7080D"/>
<path d="M80.2734 27.4406H75.4016V11.5052L68.9968 27.4406H66.8843L60.4795 11.5052V27.4406H55.6422V4.68112H62.4218L67.9405 18.4323L73.4592 4.68112H80.2725V27.4406H80.2734ZM116.147 27.4406H111.275V8.94654H104.632V4.68112H122.756V8.94654H116.147V27.4406ZM130.149 27.8497C127.605 27.8497 125.504 27.0536 123.846 25.4614C122.188 23.8692 121.359 21.7765 121.359 19.1831C121.359 16.7496 122.159 14.7011 123.761 13.0406C125.362 11.3801 127.4 10.5503 129.876 10.5503C132.329 10.5503 134.316 11.3858 135.838 13.0579C137.359 14.73 138.12 16.919 138.12 19.6269V20.5828H125.89C126.027 21.6744 126.515 22.5841 127.355 23.3119C128.195 24.0396 129.285 24.4035 130.626 24.4035C131.352 24.4035 132.141 24.2552 132.994 23.9597C133.845 23.6642 134.521 23.2657 135.021 22.7651L136.929 25.5635C135.271 27.0873 133.011 27.8497 130.149 27.8497ZM133.931 17.6468C133.863 16.714 133.494 15.8727 132.824 15.1218C132.154 14.371 131.172 13.9955 129.877 13.9955C128.651 13.9955 127.696 14.3652 127.016 15.1045C126.334 15.8438 125.937 16.6909 125.823 17.6468H133.932H133.931ZM84.7714 4.68016H101.363V8.94558H89.6096V12.9723H95.5031C97.8424 12.9723 99.682 13.6654 101.022 15.0535C102.362 16.4416 103.031 18.1579 103.031 20.2055C103.031 22.253 102.362 23.9703 101.022 25.3575C99.682 26.7456 97.8424 27.4387 95.5031 27.4387H84.7714V4.6792V4.68016ZM94.8553 17.2367H89.6086V23.1742H94.8553C95.8097 23.1742 96.5872 22.9008 97.1889 22.355C97.7905 21.8092 98.0914 21.092 98.0914 20.2055C98.0914 19.2958 97.7905 18.5728 97.1889 18.0386C96.5872 17.5034 95.8087 17.2367 94.8553 17.2367ZM156.28 27.4396H151.442L147.695 21.8776L143.913 27.4396H139.109L144.935 18.9771L139.45 10.9584H144.287L147.694 16.0421L151.067 10.9584H155.905L150.386 18.9771L156.28 27.4396Z" fill="white"/>
</svg>
